HIERARCHY
ROOT Hips
{
	OFFSET 0.000000 83.214638 0.000000
	CHANNELS 6 Xposition Yposition Zposition Xrotation Yrotation Zrotation
	JOINT Pelvis
	{
		OFFSET 0.000000 0.000000 0.000000
		CHANNELS 3 Xrotation Yrotation Zrotation
		JOINT LeftUpLeg
		{
			OFFSET 8.479700 -4.795502 -0.379100
			CHANNELS 3 Xrotation Yrotation Zrotation
			JOINT LeftLeg
			{
				OFFSET 0.024144 -32.555107 0.112900
				CHANNELS 3 Xrotation Yrotation Zrotation
				JOINT LeftFoot
				{
					OFFSET -0.024144 -32.638630 -3.012600
					CHANNELS 3 Xrotation Yrotation Zrotation
					JOINT LeftToeBase
					{
						OFFSET 0.970200 -13.225400 11.864200
						CHANNELS 3 Xrotation Yrotation Zrotation
						End Site
						{
							OFFSET 0.000000 12.319262 0.000000
						}
					}
					JOINT LFootTongue
					{
						OFFSET 1.142400 -1.059800 6.665200
						CHANNELS 3 Xrotation Yrotation Zrotation
						End Site
						{
							OFFSET 0.000000 12.319262 0.000000
						}
					}
				}
				JOINT LeftPantLeg
				{
					OFFSET 0.918482 -16.533964 -2.284700
					CHANNELS 3 Xrotation Yrotation Zrotation
					End Site
					{
						OFFSET 0.350399 24.744368 0.000000
					}
				}
			}
		}
		JOINT RightUpLeg
		{
			OFFSET -8.479700 -4.795502 -0.379100
			CHANNELS 3 Xrotation Yrotation Zrotation
			JOINT RightLeg
			{
				OFFSET -0.023144 -32.555092 0.112900
				CHANNELS 3 Xrotation Yrotation Zrotation
				JOINT RightFoot
				{
					OFFSET 0.023144 -32.638641 -3.012700
					CHANNELS 3 Xrotation Yrotation Zrotation
					JOINT RightToeBase
					{
						OFFSET -0.970200 -13.225400 11.864200
						CHANNELS 3 Xrotation Yrotation Zrotation
						End Site
						{
							OFFSET 0.000000 12.319244 0.000000
						}
					}
					JOINT RFootTongue
					{
						OFFSET -1.142200 -1.059800 6.665200
						CHANNELS 3 Xrotation Yrotation Zrotation
						End Site
						{
							OFFSET 0.000000 12.319243 0.000000
						}
					}
				}
				JOINT RightPantLeg
				{
					OFFSET -0.919482 -16.533978 -2.284800
					CHANNELS 3 Xrotation Yrotation Zrotation
					End Site
					{
						OFFSET -0.350400 24.744419 0.000000
					}
				}
			}
		}
	}
	JOINT Spine
	{
		OFFSET 0.000000 7.722000 1.166200
		CHANNELS 3 Xrotation Yrotation Zrotation
		JOINT Spine1
		{
			OFFSET 0.000000 12.024101 0.248800
			CHANNELS 3 Xrotation Yrotation Zrotation
			JOINT Spine2
			{
				OFFSET 0.000000 11.502998 -0.491200
				CHANNELS 3 Xrotation Yrotation Zrotation
				JOINT Neck
				{
					OFFSET 0.000000 18.430702 -3.123100
					CHANNELS 3 Xrotation Yrotation Zrotation
					JOINT Head
					{
						OFFSET 0.000000 9.051102 1.034000
						CHANNELS 3 Xrotation Yrotation Zrotation
						JOINT HairB
						{
							OFFSET 0.208400 24.786102 24.822300
							CHANNELS 3 Xrotation Yrotation Zrotation
							End Site
							{
								OFFSET 0.000000 32.263779 0.000000
							}
						}
						JOINT HairA
						{
							OFFSET -7.081100 24.428299 23.196600
							CHANNELS 3 Xrotation Yrotation Zrotation
							End Site
							{
								OFFSET 0.000000 32.263779 0.000000
							}
						}
						JOINT Hat
						{
							OFFSET 16.728800 15.048294 -15.439601
							CHANNELS 3 Xrotation Yrotation Zrotation
							End Site
							{
								OFFSET 0.000000 32.263779 0.000000
							}
						}
					}
				}
				JOINT LeftShoulder
				{
					OFFSET 6.197800 13.665199 -4.064700
					CHANNELS 3 Xrotation Yrotation Zrotation
					JOINT LeftArm
					{
						OFFSET 7.778100 -0.187103 -1.709300
						CHANNELS 3 Xrotation Yrotation Zrotation
						JOINT LeftForeArm
						{
							OFFSET 22.049376 0.000000 0.000000
							CHANNELS 3 Xrotation Yrotation Zrotation
							JOINT LeftHand
							{
								OFFSET 23.009392 0.000000 0.000000
								CHANNELS 3 Xrotation Yrotation Zrotation
								JOINT LeftHandThumb1
								{
									OFFSET 3.507191 -2.063065 3.133727
									CHANNELS 3 Xrotation Yrotation Zrotation
									JOINT LeftHandThumb2
									{
										OFFSET 3.101337 -1.790558 1.790558
										CHANNELS 3 Xrotation Yrotation Zrotation
										JOINT LeftHandThumb3
										{
											OFFSET 3.058640 -1.765907 1.765906
											CHANNELS 3 Xrotation Yrotation Zrotation
											End Site
											{
												OFFSET -0.415260 3.926476 -0.049563
											}
										}
									}
								}
								JOINT LeftHandIndex1
								{
									OFFSET 11.334419 -0.901459 3.706815
									CHANNELS 3 Xrotation Yrotation Zrotation
									JOINT LeftHandIndex2
									{
										OFFSET 3.283112 0.000000 0.000000
										CHANNELS 3 Xrotation Yrotation Zrotation
										JOINT LeftHandIndex3
										{
											OFFSET 3.323853 0.000000 0.000000
											CHANNELS 3 Xrotation Yrotation Zrotation
											End Site
											{
												OFFSET -1.135597 3.097809 0.402452
											}
										}
									}
								}
								JOINT LeftHandMiddle1
								{
									OFFSET 11.335861 0.000000 0.000000
									CHANNELS 3 Xrotation Yrotation Zrotation
									JOINT LeftHandMiddle2
									{
										OFFSET 3.410492 0.000000 0.000000
										CHANNELS 3 Xrotation Yrotation Zrotation
										JOINT LeftHandMiddle3
										{
											OFFSET 3.312172 0.000000 0.000000
											CHANNELS 3 Xrotation Yrotation Zrotation
											End Site
											{
												OFFSET -1.150200 3.080154 0.400270
											}
										}
									}
								}
								JOINT LeftHandRing1
								{
									OFFSET 11.514786 -0.013176 -3.003090
									CHANNELS 3 Xrotation Yrotation Zrotation
									JOINT LeftHandRing2
									{
										OFFSET 3.053307 0.000000 0.000000
										CHANNELS 3 Xrotation Yrotation Zrotation
										JOINT LeftHandRing3
										{
											OFFSET 3.295807 0.000000 0.000000
											CHANNELS 3 Xrotation Yrotation Zrotation
											End Site
											{
												OFFSET -1.281006 3.013344 0.375733
											}
										}
									}
								}
								JOINT LeftHandPinky1
								{
									OFFSET 10.518692 -0.960396 -5.730441
									CHANNELS 3 Xrotation Yrotation Zrotation
									JOINT LeftHandPinky2
									{
										OFFSET 2.861649 0.000000 0.000000
										CHANNELS 3 Xrotation Yrotation Zrotation
										JOINT LeftHandPinky3
										{
											OFFSET 2.863380 0.000000 0.000000
											CHANNELS 3 Xrotation Yrotation Zrotation
											End Site
											{
												OFFSET -0.843597 2.711159 0.369971
											}
										}
									}
								}
							}
							JOINT LSleeve
							{
								OFFSET 6.676277 -0.344902 -1.011730
								CHANNELS 3 Xrotation Yrotation Zrotation
								End Site
								{
									OFFSET 0.000000 14.885353 0.000000
								}
							}
						}
					}
				}
				JOINT RightShoulder
				{
					OFFSET -6.197800 13.665199 -4.064700
					CHANNELS 3 Xrotation Yrotation Zrotation
					JOINT RightArm
					{
						OFFSET -7.778100 -0.187103 -1.709300
						CHANNELS 3 Xrotation Yrotation Zrotation
						JOINT RightForeArm
						{
							OFFSET -22.049376 0.000000 0.000000
							CHANNELS 3 Xrotation Yrotation Zrotation
							JOINT RightHand
							{
								OFFSET -23.009392 0.000000 0.000000
								CHANNELS 3 Xrotation Yrotation Zrotation
								JOINT RightHandThumb1
								{
									OFFSET -3.507191 -2.063065 3.133727
									CHANNELS 3 Xrotation Yrotation Zrotation
									JOINT RightHandThumb2
									{
										OFFSET -3.101337 -1.790558 1.790558
										CHANNELS 3 Xrotation Yrotation Zrotation
										JOINT RightHandThumb3
										{
											OFFSET -3.058640 -1.765907 1.765906
											CHANNELS 3 Xrotation Yrotation Zrotation
											End Site
											{
												OFFSET 0.415260 3.926476 -0.049563
											}
										}
									}
								}
								JOINT RightHandIndex1
								{
									OFFSET -11.334419 -0.901459 3.706815
									CHANNELS 3 Xrotation Yrotation Zrotation
									JOINT RightHandIndex2
									{
										OFFSET -3.283112 0.000000 0.000000
										CHANNELS 3 Xrotation Yrotation Zrotation
										JOINT RightHandIndex3
										{
											OFFSET -3.323853 0.000000 0.000000
											CHANNELS 3 Xrotation Yrotation Zrotation
											End Site
											{
												OFFSET 1.135597 3.097809 0.402452
											}
										}
									}
								}
								JOINT RightHandMiddle1
								{
									OFFSET -11.335861 0.000000 0.000000
									CHANNELS 3 Xrotation Yrotation Zrotation
									JOINT RightHandMiddle2
									{
										OFFSET -3.410492 0.000000 0.000000
										CHANNELS 3 Xrotation Yrotation Zrotation
										JOINT RightHandMiddle3
										{
											OFFSET -3.312172 0.000000 0.000000
											CHANNELS 3 Xrotation Yrotation Zrotation
											End Site
											{
												OFFSET 1.150200 3.080154 0.400270
											}
										}
									}
								}
								JOINT RightHandRing1
								{
									OFFSET -11.514786 -0.013176 -3.003090
									CHANNELS 3 Xrotation Yrotation Zrotation
									JOINT RightHandRing2
									{
										OFFSET -3.053307 0.000000 0.000000
										CHANNELS 3 Xrotation Yrotation Zrotation
										JOINT RightHandRing3
										{
											OFFSET -3.295807 0.000000 0.000000
											CHANNELS 3 Xrotation Yrotation Zrotation
											End Site
											{
												OFFSET 1.281006 3.013344 0.375733
											}
										}
									}
								}
								JOINT RightHandPinky1
								{
									OFFSET -10.518692 -0.960396 -5.730441
									CHANNELS 3 Xrotation Yrotation Zrotation
									JOINT RightHandPinky2
									{
										OFFSET -2.861649 0.000000 0.000000
										CHANNELS 3 Xrotation Yrotation Zrotation
										JOINT RightHandPinky3
										{
											OFFSET -2.863380 0.000000 0.000000
											CHANNELS 3 Xrotation Yrotation Zrotation
											End Site
											{
												OFFSET 0.843597 2.711159 0.369971
											}
										}
									}
								}
							}
							JOINT RSleeve
							{
								OFFSET -6.676277 -0.344902 -1.011730
								CHANNELS 3 Xrotation Yrotation Zrotation
								End Site
								{
									OFFSET 0.000000 14.885353 0.000000
								}
							}
						}
					}
				}
				JOINT Backpack
				{
					OFFSET 0.000000 -2.471497 36.677502
					CHANNELS 3 Xrotation Yrotation Zrotation
					End Site
					{
						OFFSET 0.000000 20.427315 0.000000
					}
				}
				JOINT Hood
				{
					OFFSET 0.000000 18.754097 -10.431000
					CHANNELS 3 Xrotation Yrotation Zrotation
					JOINT Hood1
					{
						OFFSET 0.000000 -5.011002 -7.685901
						CHANNELS 3 Xrotation Yrotation Zrotation
						End Site
						{
							OFFSET 0.000000 9.175140 0.000000
						}
					}
				}
				JOINT LHoodieString
				{
					OFFSET 5.250500 16.397697 3.089900
					CHANNELS 3 Xrotation Yrotation Zrotation
					JOINT LHoodieString1
					{
						OFFSET 0.257700 -6.364304 3.694600
						CHANNELS 3 Xrotation Yrotation Zrotation
						JOINT LHoodieString2
						{
							OFFSET 0.000000 -9.643799 2.679100
							CHANNELS 3 Xrotation Yrotation Zrotation
							End Site
							{
								OFFSET 0.000000 10.009018 0.000000
							}
						}
					}
				}
				JOINT RHoodieString
				{
					OFFSET -5.250500 16.397697 3.089900
					CHANNELS 3 Xrotation Yrotation Zrotation
					JOINT RHoodieString1
					{
						OFFSET -0.257700 -6.364304 3.694600
						CHANNELS 3 Xrotation Yrotation Zrotation
						JOINT RHoodieString2
						{
							OFFSET 0.000000 -9.643799 2.679100
							CHANNELS 3 Xrotation Yrotation Zrotation
							End Site
							{
								OFFSET 0.000000 10.009018 0.000000
							}
						}
					}
				}
			}
			JOINT LBackpack_Strap
			{
				OFFSET 15.223200 -7.719803 -6.610900
				CHANNELS 3 Xrotation Yrotation Zrotation
				End Site
				{
					OFFSET 0.000000 16.040596 0.000000
				}
			}
			JOINT RBackpack_Strap
			{
				OFFSET -15.223000 -7.719803 -6.610900
				CHANNELS 3 Xrotation Yrotation Zrotation
				End Site
				{
					OFFSET 0.000000 16.040596 0.000000
				}
			}
		}
	}
	JOINT BoyFacialAnim_Joint
	{
		OFFSET 1.000000 -82.208099 -1.550900
		CHANNELS 3 Xrotation Yrotation Zrotation
		End Site
		{
			OFFSET 0.000000 30.012791 0.000000
		}
	}
}
MOTION
Frames: 4
Frame Time: 0.033333
0.615365 80.272964 0.454789 -7.872397 -2.750123 -0.393012 -0.000000 0.000000 0.000000 -3.659550 7.100480 -3.672282 26.186315 4.543307 -3.457908 -14.974017 -1.302040 7.199970 0.000000 0.000001 0.000000 0.000000 0.000001 -0.000000 -0.000001 0.000001 -0.000001 -16.115126 -5.968154 -5.051500 12.267992 -9.677978 -3.790537 11.275358 0.056730 3.956084 -0.000000 0.000000 -0.000000 -0.000000 0.000000 -0.000000 -0.000000 -0.000000 0.000000 1.518149 -0.235851 -0.434027 3.263217 -0.445639 -1.799708 3.259130 -0.468618 -1.800679 2.389960 -0.304237 0.954026 -9.546142 -1.518870 2.778643 -0.000000 0.000000 0.000000 -0.000000 0.000000 0.000000 -0.000000 0.000000 0.000000 3.280355 -13.940215 -9.926290 2.590584 14.806942 -70.308560 0.000003 -19.993709 0.000001 11.422883 9.329648 -6.380539 -0.116912 10.572551 6.462506 -7.185949 20.088097 10.186276 0.000000 0.000000 0.000000 0.041573 0.795822 -8.653158 0.341559 2.145680 -18.087084 -0.000003 -0.000001 -0.000002 0.137158 1.370222 -11.480634 0.667762 2.962845 -25.396607 0.000002 0.000000 0.000000 0.089569 1.156856 -12.360952 0.690591 3.010421 -25.834895 -0.000003 -0.000001 -0.000002 0.631040 4.000644 -10.477205 0.402379 -1.741049 -20.068820 0.000001 0.000001 -0.000000 0.000000 0.000001 -0.000000 4.944751 15.105006 9.886009 8.024141 -0.217952 68.920195 0.000001 20.601978 0.000007 -29.922348 -11.430094 8.481144 -4.587734 -9.881469 -5.868035 8.150303 -17.865765 -13.237021 0.000001 0.000003 0.000001 0.048420 -0.856609 9.066518 0.260164 -1.887837 15.691870 0.000001 0.000000 0.000002 0.119657 -1.287005 10.671389 0.751664 -3.149477 26.840449 0.000002 0.000000 0.000005 0.260594 -1.893604 14.686531 0.552959 -2.722000 22.962295 -0.000001 0.000000 -0.000001 -0.150422 -0.348621 14.997509 0.336597 -2.141159 17.865849 -0.000001 0.000000 0.000002 -0.000000 0.000000 -0.000001 -0.000000 0.000000 0.000000 -0.000000 0.000000 0.000000 -0.000000 0.000000 0.000000 -0.000000 0.000000 0.000000 -0.000000 0.000000 0.000000 -0.000000 -0.000000 -0.000000 -0.000000 0.000000 0.000000 -0.000000 0.000000 0.000000 -0.000000 -0.000000 -0.000000 -0.000000 0.000000 0.000000 -0.000000 0.000000 0.000000 -0.000000 0.000000 0.000000 
0.524216 80.258827 0.567994 -7.937551 -2.818565 -0.373460 0.000000 -0.000000 -0.000000 -3.492416 7.267670 -3.514311 26.241650 4.405878 -3.613527 -15.116694 -1.296214 7.207261 0.000000 0.000000 0.000000 0.000000 0.000000 0.000000 -0.000001 0.000000 0.000001 -16.206746 -5.837038 -4.963594 12.768996 -9.672697 -3.890217 10.952049 0.051618 4.038018 -0.000000 -0.000000 -0.000000 -0.000000 -0.000000 -0.000000 0.000001 -0.000002 -0.000000 1.527952 -0.224727 -0.481303 3.279977 -0.424026 -1.908522 3.275880 -0.448377 -1.909304 2.337406 -0.273299 0.898764 -9.644493 -1.448406 2.861713 -0.000000 0.000000 0.000000 -0.000000 0.000000 0.000000 -0.000000 0.000000 0.000000 3.269673 -13.878084 -9.858180 2.693420 15.044308 -70.176690 0.000004 -20.392524 -0.000001 12.334196 9.098451 -11.101063 -0.116914 10.572553 6.462506 -7.185933 20.088102 10.186218 -0.000001 0.000002 -0.000002 0.041576 0.795822 -8.653129 0.341556 2.145680 -18.087097 -0.000001 -0.000000 -0.000004 0.137162 1.370220 -11.480633 0.667757 2.962850 -25.396612 0.000002 0.000001 0.000000 0.089579 1.156851 -12.360954 0.690591 3.010426 -25.834922 0.000001 0.000001 -0.000000 0.631044 4.000647 -10.477176 0.402381 -1.741061 -20.068841 -0.000002 0.000001 -0.000000 -0.000000 -0.000001 0.000000 3.707308 15.201737 10.410118 9.073397 3.772649 67.588601 -0.000002 16.942119 0.000038 -30.873913 -10.608819 10.011599 -4.587742 -9.881464 -5.868049 8.150316 -17.865774 -13.237021 -0.000001 0.000002 0.000002 0.048420 -0.856609 9.066528 0.260162 -1.887826 15.691861 -0.000001 -0.000000 0.000004 0.119658 -1.287003 10.671369 0.751662 -3.149470 26.840442 0.000000 0.000001 -0.000000 0.260588 -1.893605 14.686503 0.552961 -2.721999 22.962280 -0.000000 0.000000 0.000002 -0.150419 -0.348619 14.997507 0.336595 -2.141161 17.865835 0.000001 0.000000 -0.000001 -0.000000 -0.000001 -0.000001 0.000000 -0.000000 0.000000 0.000000 -0.000000 0.000000 0.000000 -0.000000 0.000000 0.000000 -0.000000 0.000000 0.000000 -0.000000 0.000000 0.000000 0.000000 0.000000 0.000000 -0.000000 0.000000 0.000000 -0.000000 0.000000 0.000000 0.000000 0.000000 -0.000000 0.000000 0.000000 -0.000000 0.000000 0.000000 0.000000 -0.000000 -0.000000 
0.339604 80.238945 0.775199 -8.033315 -3.002586 -0.305236 0.000000 -0.000000 -0.000000 -3.184553 7.492728 -3.310178 26.281344 4.290385 -3.828457 -15.347532 -1.259134 7.145501 0.000000 0.000000 -0.000000 0.000000 0.000000 -0.000000 0.000002 0.000000 0.000001 -16.381191 -5.568152 -4.781977 13.622333 -9.674826 -4.108094 10.396548 0.041477 4.171840 -0.000000 -0.000002 -0.000000 -0.000000 -0.000002 -0.000000 -0.000000 -0.000001 0.000001 1.594216 -0.216558 -0.609048 3.420381 -0.411983 -2.203943 3.416001 -0.439763 -2.204553 2.149906 -0.209968 0.791996 -9.943193 -1.321854 3.106290 0.000000 -0.000000 -0.000000 0.000000 -0.000000 -0.000000 0.000000 -0.000000 -0.000000 3.236999 -13.688114 -9.658816 2.559330 15.654831 -69.908386 0.000010 -21.133741 0.000049 12.493381 8.752135 -17.410335 -0.116915 10.572551 6.462506 -7.185917 20.088104 10.186201 0.000002 -0.000001 0.000001 0.041567 0.795823 -8.653168 0.341559 2.145683 -18.087080 0.000002 -0.000001 -0.000002 0.137158 1.370222 -11.480611 0.667760 2.962848 -25.396609 0.000000 0.000000 -0.000003 0.089578 1.156861 -12.360936 0.690590 3.010412 -25.834900 -0.000000 0.000001 -0.000002 0.631037 4.000646 -10.477175 0.402373 -1.741057 -20.068848 -0.000002 0.000001 0.000002 0.000000 0.000000 -0.000000 0.494277 15.089727 11.190570 13.726776 17.258875 64.670861 0.000003 9.652119 0.000005 -30.293699 -9.824328 13.940058 -4.587735 -9.881469 -5.868037 8.150320 -17.865779 -13.237011 0.000001 -0.000000 0.000001 0.048421 -0.856612 9.066541 0.260168 -1.887830 15.691863 -0.000001 0.000000 0.000002 0.119658 -1.287008 10.671385 0.751664 -3.149478 26.840407 0.000000 -0.000000 0.000003 0.260592 -1.893610 14.686546 0.552957 -2.721995 22.962290 -0.000000 0.000000 -0.000001 -0.150420 -0.348619 14.997494 0.336594 -2.141167 17.865866 0.000000 -0.000000 0.000000 0.000001 -0.000000 0.000001 -0.000000 -0.000000 0.000000 -0.000000 -0.000000 0.000000 -0.000000 -0.000000 0.000000 -0.000000 -0.000000 0.000000 -0.000000 -0.000000 0.000000 -0.000000 -0.000000 0.000000 -0.000000 -0.000000 0.000000 -0.000000 -0.000000 0.000000 -0.000000 -0.000000 0.000000 -0.000000 0.000000 0.000000 -0.000000 0.000000 0.000000 0.000000 -0.000000 -0.000000 
0.153335 80.220657 0.983981 -8.044304 -3.381130 -0.270100 0.000001 0.000000 -0.000000 -2.958599 7.697067 -3.109869 26.319664 4.394318 -4.032291 -15.595239 -1.211921 7.020794 0.000000 -0.000001 -0.000000 0.000000 -0.000001 -0.000000 -0.000001 -0.000000 0.000000 -16.617321 -5.215848 -4.492980 14.368662 -9.742495 -4.333267 9.888309 0.029661 4.239233 -0.000000 0.000000 -0.000000 -0.000000 0.000000 -0.000000 0.000001 0.000002 0.000001 1.659156 -0.217750 -0.786254 3.570806 -0.421806 -2.604645 3.565945 -0.452376 -2.605236 1.996351 -0.097212 0.670960 -10.459953 -0.973559 3.360280 -0.000001 0.000000 0.000000 -0.000001 0.000000 0.000000 -0.000001 0.000000 0.000000 3.185314 -13.389076 -9.351134 1.734231 16.821863 -69.432145 -0.000006 -20.927807 -0.000041 10.992570 7.229526 -23.256065 -0.116916 10.572551 6.462510 -7.185951 20.088092 10.186247 0.000000 0.000002 -0.000003 0.041572 0.795823 -8.653162 0.341554 2.145679 -18.087079 -0.000001 0.000000 -0.000004 0.137157 1.370227 -11.480614 0.667757 2.962847 -25.396612 -0.000002 -0.000001 -0.000003 0.089570 1.156861 -12.360934 0.690586 3.010414 -25.834910 0.000001 0.000001 0.000002 0.631033 4.000644 -10.477135 0.402372 -1.741058 -20.068851 -0.000000 0.000001 -0.000004 0.000000 0.000002 0.000000 -4.025617 14.173376 11.427851 33.310071 31.603224 53.920040 -0.000001 22.426697 0.000006 -25.843870 -15.311116 20.081082 -4.587746 -9.881470 -5.868060 8.150304 -17.865757 -13.236995 -0.000001 -0.000001 -0.000002 0.048420 -0.856614 9.066541 0.260169 -1.887838 15.691871 0.000000 0.000001 0.000002 0.119652 -1.287009 10.671367 0.751667 -3.149473 26.840442 0.000003 0.000000 0.000003 0.260587 -1.893607 14.686548 0.552965 -2.721999 22.962285 0.000002 -0.000003 -0.000004 -0.150424 -0.348609 14.997524 0.336585 -2.141168 17.865839 0.000003 -0.000002 -0.000000 0.000000 -0.000000 -0.000000 -0.000000 0.000000 -0.000000 -0.000000 0.000000 -0.000000 -0.000000 0.000000 -0.000000 -0.000000 0.000000 -0.000000 -0.000000 0.000000 -0.000000 -0.000000 0.000000 -0.000000 -0.000000 0.000000 -0.000000 -0.000000 0.000000 -0.000000 -0.000000 0.000000 -0.000000 -0.000000 -0.000000 -0.000000 -0.000000 -0.000000 -0.000000 0.000001 0.000000 -0.000000 
